PathFileType	4	(X/Y/Z)	E:\Qualisys_Data\Carbon_Farble_Plate\Data\Amateur_Runner\S2\T2\S2T2V12_c3d.trc
DataRate	CameraRate	NumFrames	NumMarkers	Units	OrigDataRate	OrigDataStartFrame	OrigNumFrames
200.000000	200.000000	4	39	mm	200.000000	165	331
Frame#	Time	LSHO			RSHO			LICST			RICST			LASIS			LHEEL			RASIS			LTROC			RTROC			SACR			LTH1			LSK4			LTH2			LTH3			RHM5			LSK2			LTH4			RTH1			LTOE			RTH2			RTH3			RTH4			LLEP			RLEP			LSK1			LSK3			RSK1			LHM5			RSK2			LFT1			RSK3			RSK4			LLME			RLME			RTOE			RHEEL			RFT1			RFT2			LFT2			
		X1	Y1	Z1	X2	Y2	Z2	X3	Y3	Z3	X4	Y4	Z4	X5	Y5	Z5	X6	Y6	Z6	X7	Y7	Z7	X8	Y8	Z8	X9	Y9	Z9	X10	Y10	Z10	X11	Y11	Z11	X12	Y12	Z12	X13	Y13	Z13	X14	Y14	Z14	X15	Y15	Z15	X16	Y16	Z16	X17	Y17	Z17	X18	Y18	Z18	X19	Y19	Z19	X20	Y20	Z20	X21	Y21	Z21	X22	Y22	Z22	X23	Y23	Z23	X24	Y24	Z24	X25	Y25	Z25	X26	Y26	Z26	X27	Y27	Z27	X28	Y28	Z28	X29	Y29	Z29	X30	Y30	Z30	X31	Y31	Z31	X32	Y32	Z32	X33	Y33	Z33	X34	Y34	Z34	X35	Y35	Z35	X36	Y36	Z36	X37	Y37	Z37	X38	Y38	Z38	X39	Y39	Z39	

166	0.825	348.2348937988281	1482.895385742188	-467.3315734863281	284.8437805175781	1463.636108398438	-172.7269439697266	283.1042175292969	1013.778625488281	-472.1311340332031	279.1287231445312	1006.252746582031	-174.9106292724609	333.9455261230469	960.7996215820312	-456.987548828125	-217.546142578125	402.4088134765625	-401.3902893066406	338.3415832519531	960.1657104492188	-201.1208038330078	190.9296569824219	903.576171875	-477.8838500976562	205.3377990722656	896.7770385742188	-163.1698608398438	185.9135589599609	1052.638671875	-329.1611938476562	253.1341705322266	660.9052124023438	-488.4124755859375	-65.2166748046875	462.10205078125	-487.0883483886719	172.6526794433594	679.7191162109375	-495.0809631347656	228.068359375	561.1976318359375	-479.8714294433594	566.9913940429688	109.8229598999023	-179.3999633789062	26.15620613098145	501.8079833984375	-497.8186950683594	145.9077606201172	583.3624267578125	-476.0646667480469	405.5139465332031	671.1373901367188	-150.3618011474609	-226.5609283447266	157.3180389404297	-450.9771118164062	328.8404541015625	647.0758056640625	-149.9795989990234	432.5907592773438	577.4872436523438	-182.9502105712891	354.5445556640625	556.7489624023438	-177.9077453613281	158.5372467041016	519.496826171875	-483.5084838867188	400.980224609375	523.6796875	-179.4680938720703	58.20719146728516	430.5732116699219	-495.2401428222656	-34.05547714233398	389.3240661621094	-490.2415771484375	450.8814086914062	409.9626770019531	-179.8388366699219	-252.0899200439453	218.7109527587891	-497.0174865722656	373.0858154296875	400.5304565429688	-164.3625640869141	-244.5530242919922	388.8875732421875	-375.517578125	461.4454956054688	308.1872863769531	-190.0146484375	382.8141784667969	302.4223327636719	-176.4450225830078	-210.7683258056641	349.9079284667969	-467.8855895996094	446.9476013183594	114.6473541259766	-211.4145660400391	628.02294921875	156.3864288330078	-234.8557891845703	393.10546875	78.36080169677734	-270.2977294921875	420.8504333496094	58.47332382202148	-299.5606384277344	404.3390808105469	48.04026794433594	-247.1181182861328	-253.6077270507812	401.0913391113281	-428.7922973632812
167	0.83	364.689453125	1478.56884765625	-465.7319030761719	300.6126403808594	1458.703247070312	-171.3645477294922	298.390380859375	1009.399841308594	-471.2706604003906	293.499267578125	1001.857177734375	-174.1982116699219	349.1240539550781	956.6122436523438	-455.9070434570312	-198.6959838867188	405.936279296875	-400.2139587402344	352.9515686035156	956.2114868164062	-200.0307312011719	206.7369842529297	898.4345092773438	-477.46728515625	220.1201324462891	892.2589111328125	-162.7954254150391	200.7383117675781	1047.97021484375	-329.2026672363281	271.6739501953125	655.9661865234375	-488.6720886230469	-44.60094833374023	461.1768493652344	-486.7097778320312	190.9896545410156	673.5517578125	-495.0999450683594	248.0403442382812	555.7848510742188	-480.3257751464844	577.4150390625	104.2641754150391	-180.6933441162109	48.11752319335938	498.6636962890625	-498.24609375	165.7291717529297	576.59912109375	-476.048095703125	420.7007446289062	667.8350219726562	-151.4445037841797	-212.8369140625	161.8541564941406	-450.961181640625	344.5671081542969	643.6844482421875	-150.6297607421875	448.2571411132812	574.7525024414062	-184.4742584228516	370.6248474121094	553.7109375	-178.8114318847656	179.4750213623047	513.1451416015625	-483.8148193359375	416.943115234375	520.0985107421875	-180.1015777587891	77.94225311279297	425.703369140625	-494.9807739257812	-15.28485584259033	388.1385803222656	-489.8359680175781	465.1220703125	405.2210998535156	-180.1853485107422	-236.8556518554688	223.9452667236328	-497.3784790039062	387.2634887695312	396.8046569824219	-164.7244567871094	-225.7487487792969	393.2892456054688	-374.9239501953125	474.3938903808594	303.1194152832031	-190.9131622314453	396.3235778808594	298.5611267089844	-176.7208404541016	-193.0955047607422	353.9730224609375	-467.0822143554688	457.3066711425781	110.3358764648438	-212.0435333251953	638.841064453125	150.110595703125	-236.2466583251953	403.3703918457031	74.62279510498047	-270.9249267578125	430.5338745117188	54.53217315673828	-300.2420349121094	413.9505615234375	44.59548187255859	-247.5681304931641	-234.5526123046875	406.4786682128906	-427.6316223144531
168	0.835	380.4495239257812	1474.001342773438	-464.6565246582031	316.31640625	1453.419067382812	-169.9340515136719	313.320556640625	1004.65966796875	-470.6518249511719	307.6584167480469	997.9306030273438	-173.3756561279297	364.4025573730469	952.3093872070312	-455.0625610351562	-179.1198883056641	409.9155883789062	-399.644287109375	367.7825317382812	952.2147827148438	-198.6744079589844	222.5377197265625	893.0655517578125	-477.1106872558594	234.6261596679688	887.8660888671875	-162.3038024902344	215.7177429199219	1043.651977539062	-328.1680603027344	290.2208251953125	650.8534545898438	-489.0857849121094	-23.51920890808105	460.6085510253906	-486.8472595214844	209.1012420654297	666.9803466796875	-494.6459045410156	268.3800964355469	550.2050170898438	-480.8115844726562	586.6686401367188	98.13542175292967	-181.7485198974609	69.59100341796875	495.3219299316406	-498.2061462402344	185.7108459472656	569.7744140625	-475.7383117675781	436.443603515625	664.7189331054688	-152.4564361572266	-198.2827301025391	166.2384338378906	-450.9497375488281	360.1141052246094	640.2422485351562	-151.9935150146484	464.034912109375	571.7039794921875	-186.2520599365234	386.7735900878906	550.5603637695312	-179.1666717529297	200.8404846191406	506.9613952636719	-484.0980834960938	432.9866638183594	516.479736328125	-180.4532623291016	97.70453643798828	421.8187866210938	-495.0783081054688	3.629262685775757	386.76708984375	-489.447509765625	479.2051391601562	400.1202697753906	-180.7130432128906	-221.0499572753906	229.4006500244141	-497.4067993164062	401.1213073730469	392.5360717773438	-165.1157073974609	-206.36669921875	397.4483642578125	-373.9354248046875	487.074462890625	298.0070190429688	-191.2515411376953	408.7401123046875	294.3469848632812	-177.120361328125	-174.9471893310547	358.0770568847656	-466.6510925292969	467.2566833496094	105.6795883178711	-212.2733001708984	649.3067016601562	142.591064453125	-237.7743530273438	412.7559509277344	73.60089874267578	-271.7750549316406	438.6917724609375	52.51265335083008	-301.210693359375	421.7719116210938	44.9371223449707	-247.8355712890625	-214.8590087890625	411.1231689453125	-426.7432250976562
169	0.84	396.5357360839844	1469.099243164062	-463.4491577148438	332.4121704101562	1447.924438476562	-168.3171691894531	328.223388671875	1000.046997070312	-470.012939453125	322.1292419433594	993.3560180664062	-172.82763671875	379.4489440917969	947.71728515625	-454.0321044921875	-158.968017578125	413.4205932617188	-398.4078063964844	382.6105346679688	947.9579467773438	-197.6817779541016	238.2068939208984	887.2374877929688	-476.7115783691406	249.4203186035156	882.83740234375	-161.4028472900391	230.6875	1038.626220703125	-327.3811340332031	309.0006408691406	645.36962890625	-489.3504638671875	-2.269690275192261	459.5124206542969	-486.5360412597656	227.7576141357422	660.4689331054688	-494.6228942871094	288.9310913085938	544.3228759765625	-481.3985595703125	594.8909301757812	91.06956481933594	-183.3507690429688	91.89927673339844	492.1170043945312	-498.1707763671875	206.2248229980469	562.6575317382812	-475.457275390625	451.2417297363281	660.9208374023438	-154.0036773681641	-182.9968872070312	170.5657043457031	-451.2924194335938	375.8844909667969	636.7861938476562	-153.5116729736328	479.6152648925781	568.7171020507812	-187.816650390625	402.9213562011719	547.1699829101562	-179.2868957519531	222.2563323974609	500.7412719726562	-484.5911560058594	448.4034118652344	512.6665649414062	-181.4722595214844	117.843391418457	417.7654418945312	-495.18310546875	23.05853080749512	384.7450256347656	-489.0912170410156	492.7153930664062	394.5372009277344	-180.9746551513672	-204.9221649169922	234.4258575439453	-497.3710021972656	414.2906799316406	388.4324340820312	-165.5342407226562	-186.2675476074219	401.0197143554688	-372.9104309082031	498.945556640625	292.251953125	-191.8367309570312	420.8357238769531	289.8276062011719	-178.0135345458984	-156.1935882568359	361.9830322265625	-465.66748046875	476.7283935546875	101.1584091186523	-213.099365234375	659.4059448242188	133.3546295166016	-240.2896728515625	419.8519897460938	76.21231079101562	-272.8425598144531	445.0044555664062	51.8153076171875	-302.1640625	427.465576171875	45.83161926269531	-248.7865905761719	-194.5936279296875	415.7366333007812	-425.9924621582031
